<svg width="20" height="20" viewBox="0 0 20 20" fill="none" xmlns="http://www.w3.org/2000/svg">
<path d="M9.42625 4.93499C8.66643 4.17159 7.63456 3.74117 6.55748 3.73836C5.4804 3.73554 4.44629 4.16057 3.6825 4.91999C2.92308 5.68379 2.49805 6.7179 2.50086 7.79498C2.50367 8.87205 2.9341 9.90393 3.6975 10.6637L9.58125 16.5487C9.69845 16.6659 9.8574 16.7317 10.0231 16.7317C10.1889 16.7317 10.3478 16.6659 10.465 16.5487L16.3187 10.6987C17.0778 9.935 17.5026 8.90116 17.4998 7.82439C17.497 6.74762 17.0668 5.71601 16.3037 4.95624C15.9274 4.57712 15.4799 4.27595 14.987 4.06997C14.4941 3.86399 13.9654 3.75725 13.4312 3.75585C12.897 3.75446 12.3678 3.85844 11.8738 4.06185C11.3798 4.26525 10.9308 4.56409 10.5525 4.94124L9.99375 5.50124L9.42625 4.93499ZM15.4325 9.81624L10.025 15.2225L4.58125 9.77999C4.05256 9.25464 3.75403 8.54092 3.75122 7.7956C3.7484 7.05028 4.04155 6.33432 4.56625 5.80499C5.0953 5.27958 5.81134 4.98575 6.55696 4.98809C7.30258 4.99043 8.01676 5.28876 8.5425 5.81749L9.555 6.82999C9.61387 6.88888 9.68391 6.9354 9.76101 6.96684C9.83811 6.99828 9.92072 7.01399 10.004 7.01306C10.0872 7.01213 10.1695 6.99457 10.2458 6.96141C10.3222 6.92826 10.3912 6.88018 10.4487 6.81999L11.4362 5.82499C11.6985 5.56406 12.0096 5.35742 12.3519 5.21692C12.6941 5.07642 13.0607 5.00482 13.4306 5.00621C13.8006 5.0076 14.1666 5.08197 14.5077 5.22504C14.8489 5.36812 15.1585 5.57709 15.4187 5.83999C15.9476 6.36557 16.2462 7.07965 16.2488 7.82527C16.2514 8.5709 15.9578 9.28703 15.4325 9.81624Z" fill="black"/>
</svg>
